<mxfile host="app.diagrams.net" modified="2023-07-09T00:06:46.921Z" agent="5.0 (Macintosh; Intel Mac OS X 10_15_7) AppleWebKit/537.36 (KHTML, like Gecko) Chrome/108.0.0.0 Safari/537.36" etag="0UQVQ2JFm7ltIQmCQJ8v" version="20.4.0" type="github">
  <diagram id="4CauBeMYZ3y91vC3EO1Y" name="第 1 页">
    <mxGraphModel dx="1124" dy="793" grid="1" gridSize="10" guides="1" tooltips="1" connect="1" arrows="1" fold="1" page="1" pageScale="1" pageWidth="827" pageHeight="1169" math="0" shadow="0">
      <root>
        <mxCell id="0" />
        <mxCell id="1" parent="0" />
        <mxCell id="P_13W2h9VqLOC7XOtrxH-21" style="edgeStyle=orthogonalEdgeStyle;rounded=0;orthogonalLoop=1;jettySize=auto;html=1;entryX=0.5;entryY=1;entryDx=0;entryDy=0;" edge="1" parent="1" source="P_13W2h9VqLOC7XOtrxH-1" target="P_13W2h9VqLOC7XOtrxH-4">
          <mxGeometry relative="1" as="geometry" />
        </mxCell>
        <mxCell id="P_13W2h9VqLOC7XOtrxH-22" style="edgeStyle=orthogonalEdgeStyle;rounded=0;orthogonalLoop=1;jettySize=auto;html=1;entryX=0.5;entryY=1;entryDx=0;entryDy=0;" edge="1" parent="1" source="P_13W2h9VqLOC7XOtrxH-1" target="P_13W2h9VqLOC7XOtrxH-5">
          <mxGeometry relative="1" as="geometry" />
        </mxCell>
        <mxCell id="P_13W2h9VqLOC7XOtrxH-1" value="" style="outlineConnect=0;dashed=0;verticalLabelPosition=bottom;verticalAlign=top;align=center;html=1;shape=mxgraph.aws3.customer_gateway;fillColor=#F58534;gradientColor=none;" vertex="1" parent="1">
          <mxGeometry x="368.5" y="520" width="69" height="72" as="geometry" />
        </mxCell>
        <mxCell id="P_13W2h9VqLOC7XOtrxH-37" style="edgeStyle=orthogonalEdgeStyle;rounded=0;orthogonalLoop=1;jettySize=auto;html=1;" edge="1" parent="1" source="P_13W2h9VqLOC7XOtrxH-3" target="P_13W2h9VqLOC7XOtrxH-13">
          <mxGeometry relative="1" as="geometry" />
        </mxCell>
        <mxCell id="P_13W2h9VqLOC7XOtrxH-3" value="database" style="shape=datastore;whiteSpace=wrap;html=1;" vertex="1" parent="1">
          <mxGeometry x="373" y="50" width="60" height="60" as="geometry" />
        </mxCell>
        <mxCell id="P_13W2h9VqLOC7XOtrxH-28" style="edgeStyle=orthogonalEdgeStyle;rounded=0;orthogonalLoop=1;jettySize=auto;html=1;" edge="1" parent="1" source="P_13W2h9VqLOC7XOtrxH-4">
          <mxGeometry relative="1" as="geometry">
            <mxPoint x="264" y="390" as="targetPoint" />
          </mxGeometry>
        </mxCell>
        <mxCell id="P_13W2h9VqLOC7XOtrxH-4" value="homeplus server" style="rounded=1;whiteSpace=wrap;html=1;" vertex="1" parent="1">
          <mxGeometry x="204" y="445" width="120" height="50" as="geometry" />
        </mxCell>
        <mxCell id="P_13W2h9VqLOC7XOtrxH-29" style="edgeStyle=orthogonalEdgeStyle;rounded=0;orthogonalLoop=1;jettySize=auto;html=1;" edge="1" parent="1" source="P_13W2h9VqLOC7XOtrxH-5">
          <mxGeometry relative="1" as="geometry">
            <mxPoint x="574" y="390" as="targetPoint" />
          </mxGeometry>
        </mxCell>
        <mxCell id="P_13W2h9VqLOC7XOtrxH-5" value="homeplus server" style="rounded=1;whiteSpace=wrap;html=1;" vertex="1" parent="1">
          <mxGeometry x="514" y="445" width="120" height="50" as="geometry" />
        </mxCell>
        <mxCell id="P_13W2h9VqLOC7XOtrxH-30" style="edgeStyle=orthogonalEdgeStyle;rounded=0;orthogonalLoop=1;jettySize=auto;html=1;" edge="1" parent="1" source="P_13W2h9VqLOC7XOtrxH-6">
          <mxGeometry relative="1" as="geometry">
            <mxPoint x="119" y="390" as="targetPoint" />
          </mxGeometry>
        </mxCell>
        <mxCell id="P_13W2h9VqLOC7XOtrxH-39" style="edgeStyle=orthogonalEdgeStyle;rounded=0;orthogonalLoop=1;jettySize=auto;html=1;entryX=0.5;entryY=1;entryDx=0;entryDy=0;" edge="1" parent="1" source="P_13W2h9VqLOC7XOtrxH-6" target="P_13W2h9VqLOC7XOtrxH-12">
          <mxGeometry relative="1" as="geometry" />
        </mxCell>
        <mxCell id="P_13W2h9VqLOC7XOtrxH-6" value="analysis&lt;br&gt;service" style="rounded=0;whiteSpace=wrap;html=1;" vertex="1" parent="1">
          <mxGeometry x="84" y="240" width="70" height="100" as="geometry" />
        </mxCell>
        <mxCell id="P_13W2h9VqLOC7XOtrxH-31" style="edgeStyle=orthogonalEdgeStyle;rounded=0;orthogonalLoop=1;jettySize=auto;html=1;" edge="1" parent="1" source="P_13W2h9VqLOC7XOtrxH-7">
          <mxGeometry relative="1" as="geometry">
            <mxPoint x="217" y="390" as="targetPoint" />
          </mxGeometry>
        </mxCell>
        <mxCell id="P_13W2h9VqLOC7XOtrxH-7" value="tender&lt;br&gt;service" style="rounded=0;whiteSpace=wrap;html=1;" vertex="1" parent="1">
          <mxGeometry x="182" y="240" width="70" height="100" as="geometry" />
        </mxCell>
        <mxCell id="P_13W2h9VqLOC7XOtrxH-33" style="edgeStyle=orthogonalEdgeStyle;rounded=0;orthogonalLoop=1;jettySize=auto;html=1;" edge="1" parent="1" source="P_13W2h9VqLOC7XOtrxH-8">
          <mxGeometry relative="1" as="geometry">
            <mxPoint x="414" y="390" as="targetPoint" />
          </mxGeometry>
        </mxCell>
        <mxCell id="P_13W2h9VqLOC7XOtrxH-8" value="sync &lt;br&gt;service" style="rounded=0;whiteSpace=wrap;html=1;" vertex="1" parent="1">
          <mxGeometry x="379" y="240" width="70" height="100" as="geometry" />
        </mxCell>
        <mxCell id="P_13W2h9VqLOC7XOtrxH-34" style="edgeStyle=orthogonalEdgeStyle;rounded=0;orthogonalLoop=1;jettySize=auto;html=1;exitX=0.5;exitY=1;exitDx=0;exitDy=0;" edge="1" parent="1" source="P_13W2h9VqLOC7XOtrxH-9">
          <mxGeometry relative="1" as="geometry">
            <mxPoint x="512" y="390" as="targetPoint" />
          </mxGeometry>
        </mxCell>
        <mxCell id="P_13W2h9VqLOC7XOtrxH-9" value="merchant&lt;br&gt;service" style="rounded=0;whiteSpace=wrap;html=1;" vertex="1" parent="1">
          <mxGeometry x="477" y="240" width="70" height="100" as="geometry" />
        </mxCell>
        <mxCell id="P_13W2h9VqLOC7XOtrxH-35" style="edgeStyle=orthogonalEdgeStyle;rounded=0;orthogonalLoop=1;jettySize=auto;html=1;exitX=0.5;exitY=1;exitDx=0;exitDy=0;" edge="1" parent="1" source="P_13W2h9VqLOC7XOtrxH-10">
          <mxGeometry relative="1" as="geometry">
            <mxPoint x="611" y="390" as="targetPoint" />
          </mxGeometry>
        </mxCell>
        <mxCell id="P_13W2h9VqLOC7XOtrxH-10" value="message&lt;br&gt;service" style="rounded=0;whiteSpace=wrap;html=1;" vertex="1" parent="1">
          <mxGeometry x="576" y="240" width="70" height="100" as="geometry" />
        </mxCell>
        <mxCell id="P_13W2h9VqLOC7XOtrxH-36" style="edgeStyle=orthogonalEdgeStyle;rounded=0;orthogonalLoop=1;jettySize=auto;html=1;exitX=0.5;exitY=1;exitDx=0;exitDy=0;" edge="1" parent="1" source="P_13W2h9VqLOC7XOtrxH-11">
          <mxGeometry relative="1" as="geometry">
            <mxPoint x="709" y="390" as="targetPoint" />
          </mxGeometry>
        </mxCell>
        <mxCell id="P_13W2h9VqLOC7XOtrxH-11" value="payment&lt;br&gt;service" style="rounded=0;whiteSpace=wrap;html=1;" vertex="1" parent="1">
          <mxGeometry x="674" y="240" width="70" height="100" as="geometry" />
        </mxCell>
        <mxCell id="P_13W2h9VqLOC7XOtrxH-12" value="elastic search" style="rounded=1;whiteSpace=wrap;html=1;" vertex="1" parent="1">
          <mxGeometry x="59" y="50" width="120" height="60" as="geometry" />
        </mxCell>
        <mxCell id="P_13W2h9VqLOC7XOtrxH-38" style="edgeStyle=orthogonalEdgeStyle;rounded=0;orthogonalLoop=1;jettySize=auto;html=1;" edge="1" parent="1" source="P_13W2h9VqLOC7XOtrxH-13" target="P_13W2h9VqLOC7XOtrxH-12">
          <mxGeometry relative="1" as="geometry" />
        </mxCell>
        <mxCell id="P_13W2h9VqLOC7XOtrxH-13" value="dump data service" style="rounded=0;whiteSpace=wrap;html=1;" vertex="1" parent="1">
          <mxGeometry x="235" y="60" width="80" height="40" as="geometry" />
        </mxCell>
        <mxCell id="P_13W2h9VqLOC7XOtrxH-41" style="edgeStyle=orthogonalEdgeStyle;rounded=0;orthogonalLoop=1;jettySize=auto;html=1;entryX=0.5;entryY=0;entryDx=0;entryDy=0;" edge="1" parent="1" source="P_13W2h9VqLOC7XOtrxH-14" target="P_13W2h9VqLOC7XOtrxH-11">
          <mxGeometry relative="1" as="geometry" />
        </mxCell>
        <mxCell id="P_13W2h9VqLOC7XOtrxH-42" style="edgeStyle=orthogonalEdgeStyle;rounded=0;orthogonalLoop=1;jettySize=auto;html=1;entryX=0.5;entryY=0;entryDx=0;entryDy=0;" edge="1" parent="1" source="P_13W2h9VqLOC7XOtrxH-14" target="P_13W2h9VqLOC7XOtrxH-10">
          <mxGeometry relative="1" as="geometry" />
        </mxCell>
        <mxCell id="P_13W2h9VqLOC7XOtrxH-14" value="kafka service" style="rounded=1;whiteSpace=wrap;html=1;" vertex="1" parent="1">
          <mxGeometry x="584" y="50" width="120" height="60" as="geometry" />
        </mxCell>
        <mxCell id="P_13W2h9VqLOC7XOtrxH-15" value="monitoring service" style="rounded=0;whiteSpace=wrap;html=1;" vertex="1" parent="1">
          <mxGeometry x="4" y="170" width="70" height="210" as="geometry" />
        </mxCell>
        <mxCell id="P_13W2h9VqLOC7XOtrxH-16" value="S3 service" style="rounded=0;whiteSpace=wrap;html=1;" vertex="1" parent="1">
          <mxGeometry x="754" y="160" width="70" height="210" as="geometry" />
        </mxCell>
        <mxCell id="P_13W2h9VqLOC7XOtrxH-32" style="edgeStyle=orthogonalEdgeStyle;rounded=0;orthogonalLoop=1;jettySize=auto;html=1;" edge="1" parent="1" source="P_13W2h9VqLOC7XOtrxH-17">
          <mxGeometry relative="1" as="geometry">
            <mxPoint x="316" y="390" as="targetPoint" />
          </mxGeometry>
        </mxCell>
        <mxCell id="P_13W2h9VqLOC7XOtrxH-17" value="notification&lt;br&gt;service" style="rounded=0;whiteSpace=wrap;html=1;" vertex="1" parent="1">
          <mxGeometry x="281" y="240" width="70" height="100" as="geometry" />
        </mxCell>
        <mxCell id="P_13W2h9VqLOC7XOtrxH-27" value="" style="endArrow=none;html=1;rounded=0;" edge="1" parent="1">
          <mxGeometry width="50" height="50" relative="1" as="geometry">
            <mxPoint x="104" y="390" as="sourcePoint" />
            <mxPoint x="734" y="390" as="targetPoint" />
          </mxGeometry>
        </mxCell>
        <mxCell id="P_13W2h9VqLOC7XOtrxH-43" value="" style="outlineConnect=0;dashed=0;verticalLabelPosition=bottom;verticalAlign=top;align=center;html=1;shape=mxgraph.aws3.customer_gateway;fillColor=#F58534;gradientColor=none;" vertex="1" parent="1">
          <mxGeometry x="368.5" y="710" width="69" height="72" as="geometry" />
        </mxCell>
        <mxCell id="P_13W2h9VqLOC7XOtrxH-44" value="homeplus server" style="rounded=1;whiteSpace=wrap;html=1;" vertex="1" parent="1">
          <mxGeometry x="344" y="850" width="120" height="50" as="geometry" />
        </mxCell>
      </root>
    </mxGraphModel>
  </diagram>
</mxfile>
